<svg width="20" height="20" viewBox="0 0 20 20" fill="none" xmlns="http://www.w3.org/2000/svg">
<mask id="mask0_154_426" style="mask-type:alpha" maskUnits="userSpaceOnUse" x="0" y="0" width="20" height="20">
<rect width="20" height="20" fill="#D9D9D9"/>
</mask>
<g mask="url(#mask0_154_426)">
<path d="M5.01909 14.4102C5.72742 13.8846 6.49909 13.4696 7.33409 13.165C8.16895 12.8606 9.05756 12.7083 9.99992 12.7083C10.9423 12.7083 11.8309 12.8606 12.6658 13.165C13.5008 13.4696 14.2724 13.8846 14.9808 14.4102C15.4988 13.8408 15.9093 13.1816 16.2122 12.4327C16.5151 11.6838 16.6666 10.8729 16.6666 9.99999C16.6666 8.15277 16.0173 6.57986 14.7187 5.28124C13.4201 3.98263 11.8471 3.33333 9.99992 3.33333C8.1527 3.33333 6.57978 3.98263 5.28117 5.28124C3.98256 6.57986 3.33325 8.15277 3.33325 9.99999C3.33325 10.8729 3.48471 11.6838 3.78763 12.4327C4.09054 13.1816 4.50103 13.8408 5.01909 14.4102ZM10.0001 10.625C9.23929 10.625 8.5977 10.3639 8.07534 9.84166C7.55283 9.3193 7.29158 8.6777 7.29158 7.91687C7.29158 7.15604 7.5527 6.51444 8.07492 5.99208C8.59728 5.46958 9.23888 5.20833 9.99971 5.20833C10.7605 5.20833 11.4021 5.46944 11.9245 5.99166C12.447 6.51402 12.7083 7.15562 12.7083 7.91645C12.7083 8.67729 12.4471 9.31888 11.9249 9.84125C11.4026 10.3637 10.761 10.625 10.0001 10.625ZM9.99992 17.9167C8.90061 17.9167 7.86936 17.7099 6.90617 17.2965C5.94297 16.883 5.10513 16.3199 4.39263 15.6073C3.67999 14.8948 3.11693 14.0569 2.70346 13.0937C2.28999 12.1306 2.08325 11.0993 2.08325 9.99999C2.08325 8.90069 2.28999 7.86944 2.70346 6.90624C3.11693 5.94305 3.67999 5.1052 4.39263 4.3927C5.10513 3.68006 5.94297 3.11701 6.90617 2.70354C7.86936 2.29006 8.90061 2.08333 9.99992 2.08333C11.0992 2.08333 12.1305 2.29006 13.0937 2.70354C14.0569 3.11701 14.8947 3.68006 15.6072 4.3927C16.3198 5.1052 16.8829 5.94305 17.2964 6.90624C17.7098 7.86944 17.9166 8.90069 17.9166 9.99999C17.9166 11.0993 17.7098 12.1306 17.2964 13.0937C16.8829 14.0569 16.3198 14.8948 15.6072 15.6073C14.8947 16.3199 14.0569 16.883 13.0937 17.2965C12.1305 17.7099 11.0992 17.9167 9.99992 17.9167ZM9.99992 16.6667C10.752 16.6667 11.4771 16.5457 12.1753 16.3037C12.8735 16.0617 13.4935 15.7233 14.0351 15.2885C13.4935 14.8696 12.8816 14.5433 12.1995 14.3094C11.5173 14.0753 10.7841 13.9583 9.99992 13.9583C9.21575 13.9583 8.48124 14.074 7.79638 14.3052C7.11152 14.5366 6.50096 14.8644 5.96471 15.2885C6.50638 15.7233 7.12631 16.0617 7.8245 16.3037C8.5227 16.5457 9.24784 16.6667 9.99992 16.6667ZM9.99992 9.37499C10.4145 9.37499 10.7612 9.23555 11.0399 8.95666C11.3188 8.67791 11.4583 8.33124 11.4583 7.91666C11.4583 7.50208 11.3188 7.15541 11.0399 6.87666C10.7612 6.59777 10.4145 6.45833 9.99992 6.45833C9.58534 6.45833 9.23867 6.59777 8.95992 6.87666C8.68103 7.15541 8.54158 7.50208 8.54158 7.91666C8.54158 8.33124 8.68103 8.67791 8.95992 8.95666C9.23867 9.23555 9.58534 9.37499 9.99992 9.37499Z" fill="white"/>
</g>
</svg>
