<svg width="25" height="25" viewBox="0 0 25 25" fill="none" xmlns="http://www.w3.org/2000/svg">
<mask id="mask0_66_3197" style="mask-type:alpha" maskUnits="userSpaceOnUse" x="0" y="0" width="25" height="25">
<rect x="0.5" y="0.5" width="24" height="24" fill="#D9D9D9"/>
</mask>
<g mask="url(#mask0_66_3197)">
<path d="M3.80775 21C3.30258 21 2.875 20.825 2.525 20.475C2.175 20.125 2 19.6974 2 19.1923V7.80775C2 7.30258 2.175 6.875 2.525 6.525C2.875 6.175 3.30258 6 3.80775 6H6.8615L8.16925 4.58275C8.33458 4.40342 8.53383 4.2615 8.767 4.157C9 4.05233 9.24433 4 9.5 4H13.5577C13.7702 4 13.9483 4.07192 14.092 4.21575C14.2358 4.35958 14.3077 4.53775 14.3077 4.75025C14.3077 4.96292 14.2358 5.141 14.092 5.2845C13.9483 5.42817 13.7702 5.5 13.5577 5.5H9.3655L7.53075 7.5H3.80775C3.71792 7.5 3.64417 7.52883 3.5865 7.5865C3.52883 7.64417 3.5 7.71792 3.5 7.80775V19.1923C3.5 19.2821 3.52883 19.3558 3.5865 19.4135C3.64417 19.4712 3.71792 19.5 3.80775 19.5H19.1923C19.2821 19.5 19.3558 19.4712 19.4135 19.4135C19.4712 19.3558 19.5 19.2821 19.5 19.1923V11.4423C19.5 11.2298 19.5719 11.0517 19.7157 10.908C19.8596 10.7642 20.0378 10.6923 20.2502 10.6923C20.4629 10.6923 20.641 10.7642 20.7845 10.908C20.9282 11.0517 21 11.2298 21 11.4423V19.1923C21 19.6974 20.825 20.125 20.475 20.475C20.125 20.825 19.6974 21 19.1923 21H3.80775ZM19.5 5.5H18.25C18.0375 5.5 17.8593 5.42808 17.7155 5.28425C17.5718 5.14042 17.5 4.96225 17.5 4.74975C17.5 4.53708 17.5718 4.359 17.7155 4.2155C17.8593 4.07183 18.0375 4 18.25 4H19.5V2.75C19.5 2.5375 19.5719 2.35942 19.7157 2.21575C19.8596 2.07192 20.0378 2 20.2502 2C20.4629 2 20.641 2.07192 20.7845 2.21575C20.9282 2.35942 21 2.5375 21 2.75V4H22.25C22.4625 4 22.6406 4.07192 22.7843 4.21575C22.9281 4.35958 23 4.53775 23 4.75025C23 4.96292 22.9281 5.141 22.7843 5.2845C22.6406 5.42817 22.4625 5.5 22.25 5.5H21V6.75C21 6.9625 20.9281 7.14067 20.7843 7.2845C20.6404 7.42817 20.4622 7.5 20.2498 7.5C20.0371 7.5 19.859 7.42817 19.7155 7.2845C19.5718 7.14067 19.5 6.9625 19.5 6.75V5.5ZM11.5 17.6153C12.6475 17.6153 13.6202 17.2163 14.4183 16.4183C15.2163 15.6203 15.6152 14.6475 15.6152 13.5C15.6152 12.3525 15.2163 11.3798 14.4183 10.5818C13.6202 9.78375 12.6475 9.38475 11.5 9.38475C10.3525 9.38475 9.37975 9.78375 8.58175 10.5818C7.78375 11.3798 7.38475 12.3525 7.38475 13.5C7.38475 14.6475 7.78375 15.6203 8.58175 16.4183C9.37975 17.2163 10.3525 17.6153 11.5 17.6153ZM11.5 16.1155C10.7615 16.1155 10.141 15.8642 9.6385 15.3615C9.13583 14.859 8.8845 14.2385 8.8845 13.5C8.8845 12.7615 9.13583 12.141 9.6385 11.6385C10.141 11.1358 10.7615 10.8845 11.5 10.8845C12.2385 10.8845 12.859 11.1358 13.3615 11.6385C13.8642 12.141 14.1155 12.7615 14.1155 13.5C14.1155 14.2385 13.8642 14.859 13.3615 15.3615C12.859 15.8642 12.2385 16.1155 11.5 16.1155Z" fill="#ACACAC"/>
</g>
</svg>
