<svg width="20" height="20" viewBox="0 0 20 20" fill="none" xmlns="http://www.w3.org/2000/svg">
<mask id="mask0_83_4094" style="mask-type:alpha" maskUnits="userSpaceOnUse" x="0" y="0" width="20" height="20">
<rect width="20" height="20" fill="#D2D2D2"/>
</mask>
<g mask="url(#mask0_83_4094)">
<path d="M9.60025 11.8119L6.97421 9.18604C6.9381 9.14979 6.90963 9.1093 6.88879 9.06458C6.86796 9.02 6.85754 8.97215 6.85754 8.92104C6.85754 8.81895 6.89206 8.7302 6.96109 8.65479C7.03011 8.57951 7.12109 8.54187 7.234 8.54187H12.7661C12.879 8.54187 12.97 8.57993 13.039 8.65604C13.108 8.73201 13.1425 8.82069 13.1425 8.92208C13.1425 8.9475 13.1036 9.03548 13.0257 9.18604L10.3998 11.8119C10.3396 11.8723 10.2772 11.9164 10.2128 11.9442C10.1483 11.9719 10.0774 11.9858 10 11.9858C9.92268 11.9858 9.85178 11.9719 9.78734 11.9442C9.72289 11.9164 9.66053 11.8723 9.60025 11.8119Z" fill="#D2D2D2"/>
</g>
</svg>
