<svg width="20" height="20" viewBox="0 0 20 20" fill="none" xmlns="http://www.w3.org/2000/svg">
<mask id="mask0_128_382" style="mask-type:alpha" maskUnits="userSpaceOnUse" x="0" y="0" width="20" height="20">
<rect width="20" height="20" fill="#D9D9D9"/>
</mask>
<g mask="url(#mask0_128_382)">
<path d="M14.7276 13.0369C14.7276 14.3902 14.2567 15.5418 13.3149 16.4917C12.3732 17.4417 11.2269 17.9167 9.87591 17.9167C8.52493 17.9167 7.37722 17.4417 6.43278 16.4917C5.48834 15.5418 5.01611 14.3902 5.01611 13.0369V5.54479C5.01611 4.58326 5.35 3.76597 6.01778 3.09291C6.68542 2.41986 7.5 2.08333 8.46153 2.08333C9.42306 2.08333 10.2377 2.41986 10.9055 3.09291C11.5733 3.76597 11.9072 4.58326 11.9072 5.54479V12.6362C11.9072 13.2003 11.7107 13.6818 11.3178 14.0808C10.9247 14.4799 10.4458 14.6794 9.88111 14.6794C9.31625 14.6794 8.83431 14.4812 8.43528 14.085C8.03625 13.6887 7.83674 13.2058 7.83674 12.6362V5.94562C7.83674 5.76854 7.8966 5.62006 8.01632 5.5002C8.13618 5.38048 8.28472 5.32062 8.46195 5.32062C8.63903 5.32062 8.78743 5.38048 8.90716 5.5002C9.02674 5.62006 9.08653 5.76854 9.08653 5.94562V12.6362C9.08653 12.8596 9.1616 13.0476 9.31174 13.2004C9.46188 13.3532 9.64861 13.4296 9.87195 13.4296C10.0951 13.4296 10.2818 13.3532 10.4319 13.2004C10.5821 13.0476 10.6572 12.8596 10.6572 12.6362V5.53687C10.6485 4.92145 10.4348 4.40034 10.0159 3.97354C9.59702 3.54673 9.07889 3.33333 8.46153 3.33333C7.84681 3.33333 7.32722 3.54805 6.90278 3.97749C6.47834 4.40708 6.26611 4.92951 6.26611 5.54479V13.0369C6.2575 14.0444 6.60577 14.9012 7.31091 15.6073C8.01604 16.3135 8.87202 16.6667 9.87882 16.6667C10.8713 16.6667 11.715 16.3135 12.4099 15.6073C13.1046 14.9012 13.4605 14.0444 13.4776 13.0369V5.94562C13.4776 5.76854 13.5375 5.62006 13.6574 5.5002C13.7772 5.38048 13.9258 5.32062 14.103 5.32062C14.2801 5.32062 14.4285 5.38048 14.5482 5.5002C14.6678 5.62006 14.7276 5.76854 14.7276 5.94562V13.0369Z" fill="white"/>
</g>
</svg>
