<svg width="20" height="20" viewBox="0 0 20 20" fill="none" xmlns="http://www.w3.org/2000/svg">
<mask id="mask0_154_412" style="mask-type:alpha" maskUnits="userSpaceOnUse" x="0" y="0" width="20" height="20">
<rect width="20" height="20" fill="#D9D9D9"/>
</mask>
<g mask="url(#mask0_154_412)">
<path d="M5.58016 14.9374L4.12036 16.397C3.91292 16.6046 3.6743 16.6516 3.40451 16.5381C3.13484 16.4245 3 16.22 3 15.9245V5.31807C3 4.94972 3.1276 4.63794 3.38281 4.38274C3.63802 4.12753 3.9498 3.99992 4.31815 3.99992H15.536C15.9044 3.99992 16.2161 4.12753 16.4714 4.38274C16.7266 4.63794 16.8542 4.94972 16.8542 5.31807V13.6193C16.8542 13.9876 16.7266 14.2994 16.4714 14.5546C16.2161 14.8098 15.9044 14.9374 15.536 14.9374H5.58016ZM5.11458 13.8437H15.536C15.5922 13.8437 15.6436 13.8203 15.6902 13.7735C15.737 13.7268 15.7604 13.6754 15.7604 13.6193V5.31807C15.7604 5.26193 15.737 5.21052 15.6902 5.16386C15.6436 5.11707 15.5922 5.09367 15.536 5.09367H4.31815C4.262 5.09367 4.2106 5.11707 4.16393 5.16386C4.11714 5.21052 4.09375 5.26193 4.09375 5.31807V14.8534L5.11458 13.8437ZM6.28125 12.203H10.6562C10.8114 12.203 10.9414 12.1507 11.046 12.0459C11.1507 11.9413 11.2031 11.8114 11.2031 11.6562C11.2031 11.501 11.1507 11.3711 11.046 11.2664C10.9414 11.1617 10.8114 11.1093 10.6562 11.1093H6.28125C6.12606 11.1093 5.99615 11.1617 5.89151 11.2664C5.78675 11.3711 5.73437 11.501 5.73437 11.6562C5.73437 11.8114 5.78675 11.9413 5.89151 12.0459C5.99615 12.1507 6.12606 12.203 6.28125 12.203ZM6.28125 10.0155H13.5729C13.7281 10.0155 13.858 9.96317 13.9627 9.85841C14.0674 9.75378 14.1198 9.62386 14.1198 9.46867C14.1198 9.31348 14.0674 9.18357 13.9627 9.07893C13.858 8.97418 13.7281 8.9218 13.5729 8.9218H6.28125C6.12606 8.9218 5.99615 8.97418 5.89151 9.07893C5.78675 9.18357 5.73437 9.31348 5.73437 9.46867C5.73437 9.62386 5.78675 9.75378 5.89151 9.85841C5.99615 9.96317 6.12606 10.0155 6.28125 10.0155ZM6.28125 7.82805H13.5729C13.7281 7.82805 13.858 7.77567 13.9627 7.67091C14.0674 7.56628 14.1198 7.43636 14.1198 7.28117C14.1198 7.12598 14.0674 6.99607 13.9627 6.89143C13.858 6.78668 13.7281 6.7343 13.5729 6.7343H6.28125C6.12606 6.7343 5.99615 6.78668 5.89151 6.89143C5.78675 6.99607 5.73437 7.12598 5.73437 7.28117C5.73437 7.43636 5.78675 7.56628 5.89151 7.67091C5.99615 7.77567 6.12606 7.82805 6.28125 7.82805Z" fill="#737378"/>
</g>
</svg>
