<svg width="22" height="16" viewBox="0 0 22 16" fill="none" xmlns="http://www.w3.org/2000/svg">
<path fill-rule="evenodd" clip-rule="evenodd" d="M15 8C15 10.2091 13.2091 12 11 12C8.79085 12 6.99998 10.2091 6.99998 8C6.99998 5.79086 8.79085 4 11 4C13.2091 4 15 5.79086 15 8ZM13.5 8C13.5 9.3807 12.3807 10.5 11 10.5C9.61928 10.5 8.49998 9.3807 8.49998 8C8.49998 6.6193 9.61928 5.5 11 5.5C12.3807 5.5 13.5 6.6193 13.5 8Z" fill="#ACACAC"/>
<path fill-rule="evenodd" clip-rule="evenodd" d="M21.6058 8.7781C21.8744 8.2893 21.8744 7.7107 21.6058 7.2219C20.501 5.21142 17.0533 0 11 0C4.94665 0 1.49903 5.21141 0.394229 7.2219C0.125589 7.7107 0.125589 8.2893 0.394229 8.7781C1.49903 10.7886 4.94665 16 11 16C17.0533 16 20.501 10.7886 21.6058 8.7781ZM17.1647 12.0195C18.7439 10.6224 19.7837 8.9792 20.2912 8.0557C20.3042 8.0319 20.3072 8.0135 20.3072 8C20.3072 7.9865 20.3042 7.9681 20.2912 7.9443C19.7837 7.0208 18.7439 5.3776 17.1647 3.98045C15.5982 2.59458 13.562 1.5 11 1.5C8.43797 1.5 6.40179 2.59458 4.83534 3.98045C3.25614 5.3776 2.21631 7.0208 1.70882 7.9443C1.69575 7.9681 1.69275 7.9865 1.69275 8C1.69275 8.0135 1.69575 8.0319 1.70882 8.0557C2.21631 8.9792 3.25614 10.6224 4.83534 12.0195C6.40179 13.4054 8.43797 14.5 11 14.5C13.562 14.5 15.5982 13.4054 17.1647 12.0195Z" fill="#ACACAC"/>
</svg>
