<svg width="20" height="20" viewBox="0 0 20 20" fill="none" xmlns="http://www.w3.org/2000/svg">
<path d="M5 9.7959C5 10.1035 5.11426 10.3672 5.36035 10.5957L12.1982 17.293C12.3916 17.4863 12.6377 17.5918 12.9277 17.5918C13.5078 17.5918 13.9736 17.1348 13.9736 16.5459C13.9736 16.2559 13.8506 16.001 13.6572 15.7988L7.49609 9.7959L13.6572 3.79297C13.8506 3.59082 13.9736 3.32715 13.9736 3.0459C13.9736 2.45703 13.5078 2 12.9277 2C12.6377 2 12.3916 2.10547 12.1982 2.29883L5.36035 8.9873C5.11426 9.22461 5 9.48828 5 9.7959Z" fill="none"/>
</svg>
