<svg width="16" height="16" viewBox="0 0 16 16" fill="none" xmlns="http://www.w3.org/2000/svg">
<mask id="mask0_83_4188" style="mask-type:alpha" maskUnits="userSpaceOnUse" x="0" y="0" width="16" height="16">
<rect width="16" height="16" fill="#D7D7DB"/>
</mask>
<g mask="url(#mask0_83_4188)">
<path d="M7.35242 11.6672C7.21075 11.6672 7.09203 11.6193 6.99625 11.5234C6.90036 11.4275 6.85242 11.3087 6.85242 11.167C6.85242 11.0253 6.90036 10.9065 6.99625 10.8109C7.09203 10.7151 7.21075 10.6672 7.35242 10.6672H8.64092C8.78259 10.6672 8.90136 10.7151 8.99725 10.811C9.09303 10.9069 9.14092 11.0257 9.14092 11.1674C9.14092 11.3091 9.09303 11.4279 8.99725 11.5235C8.90136 11.6193 8.78259 11.6672 8.64092 11.6672H7.35242ZM4.76909 8.50053C4.62742 8.50053 4.5087 8.45259 4.41292 8.3567C4.31714 8.26081 4.26925 8.14203 4.26925 8.00036C4.26925 7.85859 4.31714 7.73986 4.41292 7.6442C4.5087 7.54842 4.62742 7.50053 4.76909 7.50053H11.2243C11.3659 7.50053 11.4847 7.54847 11.5806 7.64436C11.6764 7.74025 11.7243 7.85903 11.7243 8.0007C11.7243 8.14247 11.6764 8.2612 11.5806 8.35686C11.4847 8.45264 11.3659 8.50053 11.2243 8.50053H4.76909ZM2.83325 5.33386C2.69159 5.33386 2.57286 5.28592 2.47709 5.19003C2.3812 5.09414 2.33325 4.97536 2.33325 4.8337C2.33325 4.69192 2.3812 4.5732 2.47709 4.47753C2.57286 4.38175 2.69159 4.33386 2.83325 4.33386H13.1666C13.3083 4.33386 13.427 4.38181 13.5228 4.4777C13.6186 4.57358 13.6666 4.69236 13.6666 4.83403C13.6666 4.97581 13.6186 5.09453 13.5228 5.1902C13.427 5.28597 13.3083 5.33386 13.1666 5.33386H2.83325Z" fill="#D7D7DB"/>
</g>
</svg>
