<svg width="22" height="22" viewBox="0 0 22 22" fill="none" xmlns="http://www.w3.org/2000/svg">
<g opacity="0.3">
<mask id="mask0_99_567" style="mask-type:alpha" maskUnits="userSpaceOnUse" x="0" y="0" width="22" height="22">
<rect width="22" height="22" fill="#D9D9D9"/>
</mask>
<g mask="url(#mask0_99_567)">
<path d="M10.9999 18.6313C10.786 18.6313 10.5683 18.5931 10.3468 18.5168C10.1253 18.4404 9.93048 18.3181 9.76242 18.1501L8.18117 16.7063C6.56172 15.2244 5.09888 13.7539 3.79263 12.2949C2.48638 10.8359 1.83325 9.22787 1.83325 7.47093C1.83325 6.03482 2.3145 4.83551 3.277 3.87301C4.2395 2.91051 5.43881 2.42926 6.87492 2.42926C7.68464 2.42926 8.44853 2.60114 9.16659 2.94489C9.88464 3.28864 10.4958 3.75843 10.9999 4.35426C11.5041 3.75843 12.1152 3.28864 12.8333 2.94489C13.5513 2.60114 14.3152 2.42926 15.1249 2.42926C16.561 2.42926 17.7603 2.91051 18.7228 3.87301C19.6853 4.83551 20.1666 6.03482 20.1666 7.47093C20.1666 9.22787 19.5173 10.8397 18.2187 12.3063C16.9201 13.773 15.4458 15.2473 13.7958 16.7293L12.2374 18.1501C12.0694 18.3181 11.8746 18.4404 11.653 18.5168C11.4315 18.5931 11.2138 18.6313 10.9999 18.6313Z" fill="white"/>
</g>
</g>
<g opacity="0.5">
<mask id="mask1_99_567" style="mask-type:alpha" maskUnits="userSpaceOnUse" x="4" y="4" width="14" height="14">
<rect x="4" y="4" width="14" height="14" fill="#D9D9D9"/>
</mask>
<g mask="url(#mask1_99_567)">
<path d="M11 15.8562C10.8638 15.8562 10.7253 15.8319 10.5843 15.7833C10.4434 15.7347 10.3194 15.6569 10.2125 15.5499L9.20621 14.6312C8.17565 13.6881 7.24475 12.7524 6.4135 11.8239C5.58225 10.8954 5.16663 9.87217 5.16663 8.75411C5.16663 7.84022 5.47288 7.07703 6.08538 6.46453C6.69788 5.85203 7.46107 5.54578 8.37496 5.54578C8.89024 5.54578 9.37635 5.65515 9.83329 5.8739C10.2902 6.09265 10.6791 6.39161 11 6.77078C11.3208 6.39161 11.7097 6.09265 12.1666 5.8739C12.6236 5.65515 13.1097 5.54578 13.625 5.54578C14.5388 5.54578 15.302 5.85203 15.9145 6.46453C16.527 7.07703 16.8333 7.84022 16.8333 8.75411C16.8333 9.87217 16.4201 10.8979 15.5937 11.8312C14.7673 12.7645 13.8291 13.7027 12.7791 14.6458L11.7875 15.5499C11.6805 15.6569 11.5566 15.7347 11.4156 15.7833C11.2746 15.8319 11.1361 15.8562 11 15.8562Z" fill="white"/>
</g>
</g>
</svg>
