<svg width="20" height="20" viewBox="0 0 20 20" fill="none" xmlns="http://www.w3.org/2000/svg">
<mask id="mask0_154_419" style="mask-type:alpha" maskUnits="userSpaceOnUse" x="0" y="0" width="20" height="20">
<rect width="20" height="20" fill="#D9D9D9"/>
</mask>
<g mask="url(#mask0_154_419)">
<path d="M5 15.8334H7.78854V11.6347C7.78854 11.4213 7.86069 11.2424 8.005 11.098C8.14944 10.9537 8.32833 10.8815 8.54167 10.8815H11.4583C11.6717 10.8815 11.8506 10.9537 11.995 11.098C12.1393 11.2424 12.2115 11.4213 12.2115 11.6347V15.8334H15V8.46155C15 8.41891 14.9906 8.38023 14.9719 8.3455C14.9533 8.31078 14.9279 8.28002 14.8958 8.25321L10.1523 4.68759C10.1095 4.65023 10.0587 4.63155 10 4.63155C9.94125 4.63155 9.89049 4.65023 9.84771 4.68759L5.10417 8.25321C5.07208 8.28002 5.04674 8.31078 5.02813 8.3455C5.00938 8.38023 5 8.41891 5 8.46155V15.8334ZM3.75 15.8334V8.46155C3.75 8.22307 3.80333 7.99717 3.91 7.78384C4.01681 7.57037 4.16431 7.3946 4.3525 7.25655L9.09625 3.6828C9.35944 3.48196 9.66028 3.38155 9.99875 3.38155C10.3372 3.38155 10.6389 3.48196 10.9037 3.6828L15.6475 7.25655C15.8357 7.3946 15.9832 7.57037 16.09 7.78384C16.1967 7.99717 16.25 8.22307 16.25 8.46155V15.8334C16.25 16.1743 16.1269 16.4678 15.8806 16.714C15.6344 16.9603 15.3408 17.0834 15 17.0834H11.7148C11.5013 17.0834 11.3224 17.0112 11.1781 16.8668C11.0337 16.7225 10.9615 16.5436 10.9615 16.3301V12.1315H9.03854V16.3301C9.03854 16.5436 8.96632 16.7225 8.82188 16.8668C8.67757 17.0112 8.49868 17.0834 8.28521 17.0834H5C4.65917 17.0834 4.36562 16.9603 4.11937 16.714C3.87312 16.4678 3.75 16.1743 3.75 15.8334Z" fill="#737378"/>
</g>
</svg>
