<svg width="24" height="24" viewBox="0 0 24 24" fill="none" xmlns="http://www.w3.org/2000/svg">
<path d="M16 4H19C19.5304 4 20.0391 4.21071 20.4142 4.58579C20.7893 4.96086 21 5.46957 21 6V7M16 20H19C19.5304 20 20.0391 19.7893 20.4142 19.4142C20.7893 19.0391 21 18.5304 21 18V17M16.001 12H21.001M21.001 12L19.001 10M21.001 12L19.001 14M4.425 19.428L10.425 21.228C10.7237 21.3177 11.0392 21.3362 11.3463 21.2822C11.6535 21.2282 11.9437 21.1031 12.1939 20.917C12.4441 20.7308 12.6473 20.4887 12.7872 20.2101C12.9272 19.9314 13.0001 19.6238 13 19.312V4.688C13.0001 4.37615 12.9272 4.06861 12.7872 3.78993C12.6473 3.51126 12.4441 3.26917 12.1939 3.08301C11.9437 2.89685 11.6535 2.77178 11.3463 2.71778C11.0392 2.66377 10.7237 2.68234 10.425 2.772L4.425 4.572C4.01302 4.69567 3.65189 4.94886 3.39519 5.294C3.13849 5.63915 2.99991 6.05786 3 6.488V17.512C2.99991 17.9421 3.13849 18.3608 3.39519 18.706C3.65189 19.0511 4.01302 19.3043 4.425 19.428Z" stroke="white" stroke-linecap="round" stroke-linejoin="round"/>
</svg>
