<svg width="277" height="203" viewBox="0 0 277 203" fill="none" xmlns="http://www.w3.org/2000/svg">
<mask id="path-1-outside-1_140_878" maskUnits="userSpaceOnUse" x="69.8268" y="45" width="67" height="65" fill="black">
<rect fill="white" x="69.8268" y="45" width="67" height="65"/>
<path d="M131.686 105H97.4C92.9505 105 89.2933 104.939 86.4286 104.817C83.6248 104.634 81.4305 104.208 79.8457 103.537C78.261 102.867 77.1333 101.739 76.4629 100.154C75.7924 98.5695 75.3657 96.3752 75.1829 93.5714C75.061 90.7067 75 87.0495 75 82.6V50.1429H102.429V75.7429C102.429 76.4743 102.459 76.9619 102.52 77.2057C102.642 77.3886 102.916 77.5105 103.343 77.5714H104.257V50.1429H131.686V105Z"/>
</mask>
<path d="M131.686 105V110H136.686V105H131.686ZM86.4286 104.817L86.1032 109.807L86.1596 109.81L86.216 109.813L86.4286 104.817ZM79.8457 103.537L81.7939 98.9323L79.8457 103.537ZM76.4629 100.154L81.0677 98.2061L81.0677 98.2061L76.4629 100.154ZM75.1829 93.5714L70.1874 93.784L70.1898 93.8404L70.1935 93.8968L75.1829 93.5714ZM75 50.1429V45.1429H70V50.1429H75ZM102.429 50.1429H107.429V45.1429H102.429V50.1429ZM102.52 77.2057L97.6693 78.4184L97.8793 79.2586L98.3598 79.9792L102.52 77.2057ZM103.343 77.5714L102.636 82.5212L102.988 82.5714H103.343V77.5714ZM104.257 77.5714V82.5714H109.257V77.5714H104.257ZM104.257 50.1429V45.1429H99.2571V50.1429H104.257ZM131.686 50.1429H136.686V45.1429H131.686V50.1429ZM131.686 100H97.4V110H131.686V100ZM97.4 100C92.9874 100 89.4078 99.9394 86.6411 99.8217L86.216 109.813C89.1789 109.939 92.9136 110 97.4 110V100ZM86.754 99.8277C84.2018 99.6613 82.6405 99.2905 81.7939 98.9323L77.8975 108.142C80.2204 109.125 83.0477 109.607 86.1032 109.807L86.754 99.8277ZM81.7939 98.9323C81.4064 98.7684 81.2316 98.5936 81.0677 98.2061L71.858 102.102C73.035 104.884 75.1155 106.965 77.8975 108.142L81.7939 98.9323ZM81.0677 98.2061C80.7095 97.3595 80.3387 95.7982 80.1723 93.246L70.1935 93.8968C70.3927 96.9523 70.8752 99.7796 71.858 102.102L81.0677 98.2061ZM80.1783 93.3589C80.0606 90.5922 80 87.0126 80 82.6H70C70 87.0864 70.0613 90.8211 70.1874 93.784L80.1783 93.3589ZM80 82.6V50.1429H70V82.6H80ZM75 55.1429H102.429V45.1429H75V55.1429ZM97.4286 50.1429V75.7429H107.429V50.1429H97.4286ZM97.4286 75.7429C97.4286 76.3814 97.4352 77.4823 97.6693 78.4184L107.371 75.993C107.398 76.1014 107.414 76.1869 107.424 76.2409C107.433 76.2965 107.439 76.3365 107.441 76.357C107.446 76.3947 107.445 76.395 107.442 76.3452C107.439 76.2986 107.435 76.2253 107.433 76.1208C107.43 76.0172 107.429 75.892 107.429 75.7429H97.4286ZM98.3598 79.9792C99.7586 82.0775 102.007 82.4313 102.636 82.5212L104.05 72.6217C104.113 72.6306 104.424 72.6769 104.848 72.8652C105.27 73.0529 106.057 73.4967 106.68 74.4322L98.3598 79.9792ZM103.343 82.5714H104.257V72.5714H103.343V82.5714ZM109.257 77.5714V50.1429H99.2571V77.5714H109.257ZM104.257 55.1429H131.686V45.1429H104.257V55.1429ZM126.686 50.1429V105H136.686V50.1429H126.686Z" fill="#8768FF" mask="url(#path-1-outside-1_140_878)"/>
<path d="M2.5 96V98.5H5H39.2857C43.8136 98.5 47.5109 98.4389 50.3657 98.3148L50.3928 98.3136L50.4198 98.3118C53.3495 98.1208 55.8603 97.6662 57.8141 96.8396C59.9975 95.9158 61.6015 94.3118 62.5253 92.1284C63.3597 90.1562 63.7789 87.6327 63.9079 84.7057C64.0944 81.7714 64.1857 78.0645 64.1857 73.6V63.5429C64.1857 59.0203 64.0945 55.3119 63.9079 52.4354C63.7787 49.5091 63.3595 46.9862 62.5253 45.0145C61.6015 42.8311 59.9975 41.227 57.8141 40.3033C55.8371 39.4669 53.2798 39.0494 50.3004 38.9206C47.4248 38.734 43.7477 38.6429 39.2857 38.6429H34.9286V32V29.5H32.4286H5H2.5V32V96ZM72.5 198V200.5H75H109.286C113.814 200.5 117.511 200.439 120.366 200.315L120.393 200.314L120.42 200.312C123.349 200.121 125.86 199.666 127.814 198.84C129.997 197.916 131.602 196.312 132.525 194.128C133.36 192.156 133.779 189.633 133.908 186.706C134.094 183.771 134.186 180.065 134.186 175.6V165.543C134.186 161.02 134.095 157.312 133.908 154.436C133.779 151.509 133.36 148.986 132.525 147.014C131.602 144.831 129.997 143.227 127.814 142.303C125.837 141.467 123.28 141.049 120.3 140.921C117.425 140.734 113.748 140.643 109.286 140.643H104.929V134V131.5H102.429H75H72.5V134V198ZM146.441 145.329H145H142.5V147.829V155.143V157.643H145H183.217C186.978 157.643 190.092 157.52 192.53 157.263C195.008 157.003 197.202 156.431 198.921 155.384C200.855 154.309 202.151 152.591 202.864 150.463C203.523 148.554 203.874 146.122 204 143.277C204.125 140.483 204.186 136.968 204.186 132.743V91.1429V88.6429H201.686H174.929H174.257H172.429H171.757H145H142.5V91.1429V123.6C142.5 128.068 142.561 131.764 142.685 134.678L142.686 134.706L142.688 134.734C142.879 137.664 143.334 140.175 144.16 142.128C144.697 143.397 145.464 144.471 146.441 145.329ZM212.688 118.504L212.686 118.529L212.685 118.554C212.561 121.409 212.5 125.075 212.5 129.543V139.6C212.5 144.371 212.561 148.249 212.685 151.224L212.686 151.252L212.688 151.279C212.88 154.288 213.402 156.884 214.428 158.856L214.446 158.891L214.464 158.924C215.669 161.075 217.591 162.507 219.992 163.282L220.028 163.293L220.063 163.304C222.243 163.937 225.133 164.282 228.625 164.407L228.667 164.408L228.709 164.409L271.68 164.5L274.186 164.505V162V153.529V152.857V151.029V150.357V129.543C274.186 125.021 274.095 121.313 273.908 118.437C273.779 115.51 273.36 112.987 272.525 111.014C271.602 108.831 269.997 107.227 267.814 106.303C265.837 105.467 263.28 105.049 260.3 104.921C257.425 104.734 253.748 104.643 249.286 104.643H237.4C232.936 104.643 229.229 104.734 226.295 104.921C223.368 105.05 220.844 105.469 218.872 106.303C216.688 107.227 215.084 108.831 214.16 111.014C213.331 112.974 212.878 115.52 212.688 118.504Z" stroke="#8768FF" stroke-width="5"/>
<path d="M30 72V58C32 58 34.5 59 35 59.5V72H30Z" fill="#8768FF" stroke="#8768FF"/>
<path d="M100 173V159C102 159 104.5 160 105 160.5V173H100Z" fill="#8768FF" stroke="#8768FF"/>
<path d="M240 137V123C242 123 244.5 124 245 124.5V137H240Z" fill="#8768FF" stroke="#8768FF"/>
<path d="M171.173 119.524V90H175.173V121C173.253 121 171.707 120.016 171.173 119.524Z" fill="#8768FF" stroke="#8768FF"/>
<path d="M100.173 78.5238V49H104.173V80C102.253 80 100.707 79.0159 100.173 78.5238Z" fill="#8768FF" stroke="#8768FF"/>
<path d="M227 78H245M236 69V87M241 73L231 83M231 73L241 83" stroke="white" stroke-width="2" stroke-linecap="round" stroke-linejoin="round"/>
<path d="M32.125 119.5H44.875M38.5 113.125V125.875M42.0417 115.958L34.9583 123.042M34.9583 115.958L42.0417 123.042" stroke="white" stroke-width="2" stroke-linecap="round" stroke-linejoin="round"/>
</svg>
