<svg width="34" height="34" viewBox="0 0 34 34" fill="none" xmlns="http://www.w3.org/2000/svg">
<g clip-path="url(#clip0_26_3602)">
<path d="M18.0292 15.2343L13.2585 19.2986M12.3475 18.6446L7.29274 17.3136C6.89409 17.1657 6.5523 16.8957 6.31611 16.5422C6.07991 16.1886 5.96137 15.7696 5.97738 15.3447C5.99339 14.9198 6.14314 14.5108 6.40528 14.176C6.66741 13.8413 7.02855 13.5978 7.4372 13.4804L21.4347 9.7543C21.805 9.65177 22.1968 9.65714 22.5642 9.76978C22.9315 9.88242 23.2591 10.0976 23.5082 10.3901C23.7574 10.6826 23.9179 11.0402 23.9707 11.4207C24.0235 11.8013 23.9666 12.1891 23.8065 12.5384L17.8814 26.0314C17.6993 26.4018 17.4078 26.7075 17.0465 26.907C16.6851 27.1066 16.2712 27.1905 15.8606 27.1474C15.4501 27.1042 15.0627 26.9362 14.7506 26.6659C14.4386 26.3955 14.2171 26.036 14.1159 25.6358L13.664 20.1899C13.6078 19.8362 13.4552 19.5048 13.2229 19.2322C12.9907 18.9596 12.6878 18.7563 12.3475 18.6446Z" stroke="white" stroke-linecap="round" stroke-linejoin="round"/>
</g>
<defs>
<clipPath id="clip0_26_3602">
<rect width="24" height="24" fill="white" transform="translate(18.269) rotate(49.5708)"/>
</clipPath>
</defs>
</svg>
